<?xml version="1.0" encoding="UTF-8"?>
<svg id="Layer_1" data-name="Layer 1" xmlns="http://www.w3.org/2000/svg" viewBox="0 0 512 512">
  <defs>
    <style>
      .cls-1 {
        fill: #db4b2b;
        stroke-width: 0px;
      }
    </style>
  </defs>
  <path class="cls-1" d="M485.55,192.14L319.86,26.45c-35.27-35.27-92.45-35.27-127.72,0L26.45,192.14c-35.27,35.27-35.27,92.45,0,127.72l165.69,165.68c35.27,35.27,92.45,35.27,127.72,0l165.68-165.68c35.27-35.27,35.27-92.45,0-127.72ZM412.69,224.9c0,2.9-1.32,5.61-3.48,7.55-4.09,3.68-7.85,7.74-11.2,12.27-7.48,10.09-12.32,21.28-14.56,33.61l-5.66,35.99c-1.33,8.46-8.62,14.7-17.19,14.7h-28.53c-10.72,0-18.89-9.6-17.18-20.18l3.04-18.74c.74-3.36,1.21-6.72,1.4-10.08.19-3.36.28-6.53.28-9.53,0-11.95-2.61-22.3-7.84-31.08-5.23-8.77-12.32-15.58-21.28-20.44-8.77-4.74-19.14-7.17-31.13-7.27-10.76-.09-21.37,1.99-31.13,6.5-12.8,5.91-23.3,14.57-31.55,25.98-7.28,10.09-12.04,21.28-14.28,33.61l-5.73,36.54c-1.33,8.47-8.62,14.7-17.19,14.7h-28.56c-10.69,0-18.85-9.55-17.19-20.1l5.95-37.86c3.73-24.26,12.22-44.8,25.48-61.6,13.25-16.8,29.77-29.77,49.56-38.93,19.79-9.14,41.81-13.72,66.08-13.72,12.32,0,24.73,1.5,37.24,4.49,12.51,2.99,24.08,8.03,34.72,15.12,10.64,7.1,19.51,16.8,26.6,29.12h.56c9.7-11.57,20.34-21,31.92-28.28,2.03-1.28,4.09-2.49,6.17-3.63,6.6-3.62,14.67,1.31,14.67,8.84v42.45Z"/>
</svg>