<?xml version="1.0" encoding="UTF-8"?>
<svg id="Layer_1" data-name="Layer 1" xmlns="http://www.w3.org/2000/svg" viewBox="0 0 262.91 52.68">
  <defs>
    <style>
      .cls-1 {
        fill: #2b2117;
      }

      .cls-1, .cls-2, .cls-3 {
        stroke-width: 0px;
      }

      .cls-2 {
        fill: #231f20;
      }

      .cls-3 {
        fill: #db4b2b;
      }
    </style>
  </defs>
  <path class="cls-3" d="M42.31,22.78l-14.44-14.44c-3.07-3.07-8.06-3.07-11.13,0L2.31,22.78c-3.07,3.07-3.07,8.06,0,11.13l14.44,14.44c3.07,3.07,8.06,3.07,11.13,0l14.44-14.44c3.07-3.07,3.07-8.06,0-11.13ZM35.97,25.63c0,.25-.11.49-.3.66-.36.32-.68.67-.98,1.07-.65.88-1.07,1.85-1.27,2.93l-.49,3.14c-.12.74-.75,1.28-1.5,1.28h-2.49c-.93,0-1.65-.84-1.5-1.76l.26-1.63c.06-.29.11-.59.12-.88.02-.29.02-.57.02-.83,0-1.04-.23-1.94-.68-2.71-.46-.76-1.07-1.36-1.85-1.78-.76-.41-1.67-.63-2.71-.63-.94,0-1.86.17-2.71.57-1.12.52-2.03,1.27-2.75,2.26-.63.88-1.05,1.85-1.24,2.93l-.5,3.18c-.12.74-.75,1.28-1.5,1.28h-2.49c-.93,0-1.64-.83-1.5-1.75l.52-3.3c.32-2.11,1.07-3.9,2.22-5.37,1.15-1.46,2.59-2.59,4.32-3.39,1.72-.8,3.64-1.2,5.76-1.2,1.07,0,2.15.13,3.25.39,1.09.26,2.1.7,3.03,1.32.93.62,1.7,1.46,2.32,2.54h.05c.85-1.01,1.77-1.83,2.78-2.46.18-.11.36-.22.54-.32.58-.32,1.28.11,1.28.77v3.7Z"/>
  <g>
    <path class="cls-2" d="M55.79,49.88v-7.65h.49v7.65h-.49Z"/>
    <path class="cls-2" d="M61.24,49.88v-7.65h.52l4.47,6.84v-6.84h.49v7.65h-.51l-4.48-6.86v6.86h-.49Z"/>
    <path class="cls-2" d="M74.01,50.01c-.59,0-1.08-.11-1.48-.32-.4-.21-.7-.5-.9-.87s-.3-.78-.29-1.24h.51c0,.36.07.69.22.99.15.3.38.54.7.73.32.18.72.27,1.22.27.45,0,.82-.07,1.12-.22.29-.15.51-.34.65-.59.14-.25.21-.52.21-.83,0-.37-.08-.67-.25-.89-.16-.22-.38-.4-.64-.54-.27-.14-.56-.26-.89-.36s-.64-.21-.96-.32c-.51-.18-.9-.41-1.17-.69s-.4-.65-.4-1.12c0-.36.09-.68.26-.97.17-.29.42-.52.76-.69.33-.17.74-.26,1.22-.26.44,0,.84.08,1.18.24.34.16.61.39.81.69.2.3.29.68.29,1.12h-.52c0-.34-.07-.63-.21-.88-.14-.24-.35-.42-.61-.55-.27-.13-.58-.19-.95-.19-.39,0-.71.06-.96.19-.26.13-.45.3-.57.51-.12.21-.19.46-.19.74,0,.31.08.57.23.75.15.19.36.34.62.46s.55.23.87.33c.32.1.65.22.98.35.31.12.58.27.83.44.24.17.44.38.58.63.14.25.21.58.21.96s-.09.73-.27,1.04c-.18.32-.46.57-.83.77-.37.19-.83.29-1.39.29Z"/>
    <path class="cls-2" d="M81.11,49.88v-7.65h2.23c.59,0,1.07.09,1.45.28.38.19.65.44.83.76s.26.69.26,1.1-.09.79-.26,1.11-.45.58-.82.76c-.37.18-.86.27-1.45.27h-1.74v3.37h-.49ZM81.6,46.09h1.75c.68,0,1.18-.15,1.51-.44.33-.29.5-.72.5-1.28s-.17-.99-.5-1.28c-.33-.29-.84-.44-1.51-.44h-1.75v3.43Z"/>
    <path class="cls-2" d="M90.41,49.88v-7.65h4.49v.42h-4v3.19h3.67v.43h-3.67v3.2h4v.42h-4.49Z"/>
    <path class="cls-2" d="M102.91,50.01c-.72,0-1.35-.17-1.89-.5-.54-.33-.95-.79-1.24-1.39-.29-.59-.44-1.28-.44-2.07s.15-1.49.44-2.08c.29-.59.71-1.05,1.24-1.38.54-.33,1.16-.5,1.89-.5.84,0,1.51.19,2.02.57s.85.92,1.01,1.62h-.55c-.13-.52-.4-.95-.8-1.27s-.96-.48-1.68-.48c-.61,0-1.13.14-1.59.42-.46.28-.81.68-1.07,1.2-.26.52-.39,1.15-.39,1.89s.13,1.36.39,1.88c.26.52.62.92,1.07,1.2.46.28.99.42,1.59.42.71,0,1.27-.16,1.68-.49.41-.32.68-.75.8-1.27h.55c-.16.7-.5,1.24-1.01,1.63-.51.39-1.18.58-2.02.58Z"/>
    <path class="cls-2" d="M112.12,49.88v-7.24h-2.32v-.42h5.11v.42h-2.31v7.24h-.49Z"/>
    <path class="cls-2" d="M119.37,49.88v-7.65h.49v7.65h-.49Z"/>
    <path class="cls-2" d="M128.16,50.01c-.73,0-1.37-.17-1.91-.5-.55-.33-.97-.79-1.28-1.39-.31-.59-.46-1.28-.46-2.07s.15-1.47.46-2.06c.31-.59.73-1.06,1.28-1.39.55-.33,1.18-.5,1.91-.5s1.39.17,1.94.5c.55.34.97.8,1.27,1.39.3.59.45,1.28.45,2.06s-.15,1.48-.45,2.07c-.3.59-.72,1.06-1.27,1.39-.55.33-1.2.5-1.94.5ZM128.17,49.57c.61,0,1.14-.14,1.62-.42.47-.28.84-.68,1.11-1.2s.4-1.15.4-1.89-.13-1.37-.4-1.89-.64-.93-1.11-1.2c-.47-.28-1.01-.42-1.62-.42s-1.14.14-1.62.42c-.47.28-.85.68-1.12,1.2s-.41,1.15-.41,1.89.14,1.37.41,1.89.65.93,1.12,1.2c.47.28,1.01.42,1.62.42Z"/>
    <path class="cls-2" d="M136.48,49.88v-7.65h.52l4.47,6.84v-6.84h.49v7.65h-.51l-4.48-6.86v6.86h-.49Z"/>
    <path class="cls-2" d="M155.03,50.01c-.49,0-.92-.09-1.28-.28s-.65-.45-.86-.79c-.2-.34-.31-.74-.31-1.2,0-.38.07-.72.21-1.02.14-.3.36-.56.65-.79.29-.23.65-.42,1.07-.58l.21-.08.32.33-.34.13c-.55.22-.95.49-1.21.81-.26.32-.39.72-.39,1.19,0,.36.08.67.25.95s.39.49.68.64c.29.15.63.23,1.02.23.47,0,.89-.11,1.25-.32.36-.21.72-.56,1.08-1.05.16-.2.33-.43.5-.69s.36-.54.55-.86l.43-.7h.55l-.58.97c-.2.32-.39.62-.57.88-.18.27-.36.52-.54.74-.4.5-.81.88-1.23,1.12s-.9.36-1.45.36ZM158.64,49.88l-3.99-4.19c-.34-.36-.6-.69-.77-.99-.17-.29-.25-.62-.25-.98,0-.32.07-.6.22-.85s.36-.44.64-.57c.28-.14.6-.21.98-.21.36,0,.67.07.95.2.27.13.49.32.65.56.16.24.23.53.22.86h-.5c0-.39-.12-.69-.38-.89-.25-.2-.56-.3-.93-.3-.43,0-.76.11-.99.34-.23.23-.35.51-.35.85,0,.28.08.56.23.83.15.27.38.56.68.88l4.25,4.46h-.66Z"/>
    <path class="cls-2" d="M173.08,50.01c-.72,0-1.35-.17-1.89-.5-.54-.33-.95-.79-1.24-1.39-.29-.59-.44-1.28-.44-2.07s.15-1.49.44-2.08c.29-.59.71-1.05,1.24-1.38.54-.33,1.16-.5,1.89-.5.84,0,1.51.19,2.02.57s.85.92,1.01,1.62h-.55c-.13-.52-.4-.95-.8-1.27s-.96-.48-1.68-.48c-.61,0-1.13.14-1.59.42-.46.28-.81.68-1.07,1.2-.26.52-.39,1.15-.39,1.89s.13,1.36.39,1.88c.26.52.62.92,1.07,1.2.46.28.99.42,1.59.42.71,0,1.27-.16,1.68-.49.41-.32.68-.75.8-1.27h.55c-.16.7-.5,1.24-1.01,1.63-.51.39-1.18.58-2.02.58Z"/>
    <path class="cls-2" d="M184.09,50.01c-.73,0-1.37-.17-1.91-.5-.55-.33-.97-.79-1.28-1.39-.31-.59-.46-1.28-.46-2.07s.15-1.47.46-2.06c.31-.59.73-1.06,1.28-1.39.55-.33,1.18-.5,1.91-.5s1.39.17,1.94.5c.55.34.97.8,1.27,1.39.3.59.45,1.28.45,2.06s-.15,1.48-.45,2.07c-.3.59-.72,1.06-1.27,1.39-.55.33-1.2.5-1.94.5ZM184.1,49.57c.61,0,1.14-.14,1.62-.42.47-.28.84-.68,1.11-1.2s.4-1.15.4-1.89-.13-1.37-.4-1.89-.64-.93-1.11-1.2c-.47-.28-1.01-.42-1.62-.42s-1.14.14-1.62.42c-.47.28-.85.68-1.12,1.2s-.41,1.15-.41,1.89.14,1.37.41,1.89.65.93,1.12,1.2c.47.28,1.01.42,1.62.42Z"/>
    <path class="cls-2" d="M192.4,49.88v-7.65h.52l4.47,6.84v-6.84h.49v7.65h-.51l-4.48-6.86v6.86h-.49Z"/>
    <path class="cls-2" d="M205.17,50.01c-.59,0-1.08-.11-1.48-.32-.4-.21-.7-.5-.9-.87s-.3-.78-.29-1.24h.51c0,.36.07.69.22.99.15.3.38.54.7.73.32.18.72.27,1.22.27.45,0,.82-.07,1.12-.22.29-.15.51-.34.65-.59.14-.25.21-.52.21-.83,0-.37-.08-.67-.25-.89-.16-.22-.38-.4-.64-.54-.27-.14-.56-.26-.89-.36s-.64-.21-.96-.32c-.51-.18-.9-.41-1.17-.69s-.4-.65-.4-1.12c0-.36.09-.68.26-.97.17-.29.42-.52.76-.69.33-.17.74-.26,1.22-.26.44,0,.84.08,1.18.24.34.16.61.39.81.69.2.3.29.68.29,1.12h-.52c0-.34-.07-.63-.21-.88-.14-.24-.35-.42-.61-.55-.27-.13-.58-.19-.95-.19-.39,0-.71.06-.96.19-.26.13-.45.3-.57.51-.12.21-.19.46-.19.74,0,.31.08.57.23.75.15.19.36.34.62.46s.55.23.87.33c.32.1.65.22.98.35.31.12.58.27.83.44.24.17.44.38.58.63.14.25.21.58.21.96s-.09.73-.27,1.04c-.18.32-.46.57-.83.77-.37.19-.83.29-1.39.29Z"/>
    <path class="cls-2" d="M214.87,50.01c-.5,0-.95-.1-1.35-.3-.4-.2-.73-.51-.97-.93s-.36-.96-.36-1.62v-4.93h.49v4.92c0,.57.09,1.03.28,1.39.19.36.45.62.78.78.33.16.71.25,1.12.25s.81-.08,1.13-.25.58-.42.76-.78c.18-.36.27-.82.27-1.39v-4.92h.49v4.93c0,.66-.12,1.2-.35,1.62s-.55.73-.95.93c-.4.2-.85.3-1.36.3Z"/>
    <path class="cls-2" d="M222.43,49.88v-7.65h.49v7.25h3.72v.4h-4.21Z"/>
    <path class="cls-2" d="M231.83,49.88v-7.24h-2.32v-.42h5.11v.42h-2.31v7.24h-.49Z"/>
    <path class="cls-2" d="M239.08,49.88v-7.65h.49v7.65h-.49Z"/>
    <path class="cls-2" d="M244.54,49.88v-7.65h.52l4.47,6.84v-6.84h.49v7.65h-.51l-4.48-6.86v6.86h-.49Z"/>
    <path class="cls-2" d="M258.18,50.01c-.71,0-1.32-.17-1.85-.5-.52-.33-.93-.8-1.22-1.39-.29-.59-.44-1.28-.44-2.07s.15-1.48.45-2.07c.3-.59.72-1.05,1.26-1.38.54-.33,1.18-.5,1.91-.5.82,0,1.51.2,2.05.59.55.39.91.95,1.09,1.68h-.57c-.14-.55-.42-.99-.85-1.32s-1.01-.49-1.73-.49c-.61,0-1.15.14-1.62.42-.47.28-.83.68-1.09,1.2-.26.52-.39,1.15-.39,1.88s.13,1.33.38,1.86.61.93,1.05,1.22.97.43,1.56.43c.92,0,1.61-.28,2.09-.85s.74-1.37.8-2.41h-2.47v-.4h2.98v3.99h-.44l-.09-1.73c-.17.4-.4.74-.66,1.02-.27.28-.58.49-.95.63-.36.14-.79.21-1.27.21Z"/>
  </g>
  <g>
    <path class="cls-1" d="M55.37,33.29V6.82h4.97l13.71,21.74h.24l-.16-21.74h3.57v26.47h-4.61l-14.04-22.18h-.28l.2,22.18h-3.61Z"/>
    <path class="cls-1" d="M90.62,33.81c-1.63,0-3.07-.25-4.31-.76-1.24-.51-2.29-1.22-3.13-2.15-.84-.92-1.48-2.03-1.91-3.33s-.64-2.75-.64-4.35.21-3.08.62-4.43c.41-1.35,1.04-2.53,1.86-3.55.83-1.02,1.84-1.8,3.05-2.37s2.58-.84,4.13-.84c1.39,0,2.65.23,3.77.7,1.12.47,2.07,1.18,2.85,2.13s1.36,2.12,1.75,3.53c.39,1.4.53,3.03.42,4.87l-16.16.16v-2.49l13.84-.16-1.12,1.64c.11-1.6-.05-2.94-.46-4.01-.42-1.07-1.04-1.88-1.88-2.43-.84-.55-1.84-.82-2.99-.82-1.26,0-2.34.32-3.25.96-.91.64-1.61,1.56-2.11,2.75-.5,1.19-.74,2.63-.74,4.31,0,2.46.55,4.34,1.66,5.66,1.11,1.31,2.72,1.96,4.83,1.96.91,0,1.68-.12,2.33-.36.64-.24,1.18-.56,1.6-.96.43-.4.77-.86,1.02-1.36.25-.51.43-1.04.54-1.6l3.25.64c-.19,1.02-.51,1.93-.96,2.75-.46.82-1.05,1.51-1.79,2.08-.74.58-1.61,1.02-2.63,1.34-1.02.32-2.17.48-3.45.48Z"/>
    <path class="cls-1" d="M105.18,33.29l-5.54-20.73h3.77l4.13,17.61h.56l4.37-17.61h4.61l4.33,17.61h.52l4.21-17.61h3.73l-5.65,20.73h-5.09l-4.21-17.37h-.36l-4.25,17.37h-5.13Z"/>
    <path class="cls-1" d="M143,33.81c-1.92,0-3.64-.31-5.13-.92-1.5-.61-2.77-1.5-3.81-2.67s-1.83-2.58-2.37-4.25c-.54-1.67-.8-3.55-.8-5.63s.28-4.1.84-5.81,1.36-3.18,2.39-4.41c1.03-1.23,2.28-2.17,3.75-2.83s3.12-.98,4.93-.98c1.44,0,2.76.2,3.95.6,1.19.4,2.21.98,3.07,1.74s1.52,1.68,1.99,2.75c.47,1.07.7,2.26.7,3.57l-3.45.8c0-1.39-.28-2.54-.84-3.45s-1.32-1.6-2.29-2.09c-.96-.48-2.03-.72-3.21-.72-1.07,0-2.09.21-3.05.64-.96.43-1.82,1.07-2.57,1.92-.75.86-1.34,1.96-1.76,3.31-.43,1.35-.64,2.96-.64,4.83,0,2.35.35,4.29,1.04,5.82.69,1.52,1.68,2.66,2.95,3.41,1.27.75,2.75,1.12,4.43,1.12s2.91-.31,3.91-.94c1-.63,1.75-1.5,2.25-2.63.49-1.12.75-2.45.78-3.97l3.37.56c0,1.42-.2,2.75-.6,3.99-.4,1.24-1.02,2.33-1.86,3.27-.84.94-1.92,1.66-3.25,2.19-1.32.52-2.89.78-4.71.78Z"/>
    <path class="cls-1" d="M155.75,33.29V5.41h3.73v6.22c0,.56-.02,1.17-.06,1.82-.04.66-.09,1.35-.16,2.09-.07.74-.15,1.48-.26,2.23-.11.75-.2,1.5-.28,2.25h.6c.35-1.82.83-3.32,1.46-4.49.63-1.18,1.43-2.05,2.41-2.63.98-.57,2.12-.86,3.43-.86,2.33,0,4.06.82,5.21,2.47,1.15,1.64,1.72,4.1,1.72,7.36v11.43h-3.69v-11.11c0-2.41-.36-4.15-1.08-5.23-.72-1.08-1.79-1.62-3.21-1.62-1.26,0-2.32.39-3.19,1.16s-1.55,1.84-2.04,3.21c-.5,1.36-.81,2.96-.94,4.77v8.82h-3.65Z"/>
    <path class="cls-1" d="M181.78,33.81c-1.12,0-2.14-.21-3.05-.64-.91-.43-1.63-1.07-2.17-1.92s-.8-1.95-.8-3.29c0-1.04.19-1.95.58-2.71s.97-1.4,1.75-1.91c.77-.51,1.74-.94,2.91-1.28,1.16-.35,2.53-.63,4.11-.84,1.15-.16,2.05-.31,2.71-.44.65-.13,1.12-.35,1.38-.64.27-.29.4-.72.4-1.28,0-1.1-.37-1.99-1.1-2.69-.74-.69-1.83-1.04-3.27-1.04-.78,0-1.56.13-2.37.4-.8.27-1.49.73-2.07,1.38-.58.66-.93,1.54-1.06,2.67l-3.37-.96c.19-1.1.53-2.04,1.04-2.85.51-.8,1.15-1.48,1.92-2.05.78-.56,1.67-.98,2.69-1.26,1.02-.28,2.11-.42,3.29-.42,1.71,0,3.15.29,4.33.88,1.18.59,2.07,1.49,2.67,2.71s.9,2.77.9,4.67v4.41c.03.88.05,1.82.08,2.81.03.99.07,1.98.12,2.97.05.99.12,1.93.2,2.81h-3.41c-.03-.96-.05-1.91-.08-2.85-.03-.94-.04-1.88-.04-2.85h-.48c-.35,1.12-.86,2.15-1.54,3.09s-1.54,1.69-2.59,2.27-2.27.86-3.69.86ZM182.86,30.84c.64,0,1.29-.12,1.94-.36.66-.24,1.29-.6,1.91-1.08.62-.48,1.18-1.1,1.68-1.84.51-.75.92-1.63,1.24-2.65v-3.17l1.08.04c-.4.43-.95.76-1.64.98-.7.23-1.47.4-2.33.52s-1.72.26-2.59.42-1.66.38-2.39.66c-.72.28-1.3.67-1.72,1.18s-.64,1.2-.64,2.09c0,1.04.31,1.84.94,2.39.63.55,1.46.82,2.51.82Z"/>
    <path class="cls-1" d="M196.66,39.54V12.55h3.33l-.28,5.74h.52c.32-1.34.79-2.47,1.4-3.39.62-.92,1.38-1.63,2.31-2.13.92-.49,2.01-.74,3.27-.74,1.79,0,3.32.46,4.57,1.36s2.22,2.18,2.89,3.81c.67,1.63,1,3.53,1,5.7s-.33,4.1-.98,5.73c-.66,1.63-1.6,2.9-2.83,3.81-1.23.91-2.71,1.36-4.45,1.36-1.42,0-2.61-.31-3.59-.92-.98-.61-1.75-1.44-2.33-2.49s-1.01-2.19-1.3-3.45h-.6c.16.86.29,1.7.4,2.53s.19,1.63.26,2.41.1,1.51.1,2.21v5.45h-3.69ZM206.44,30.6c1.18,0,2.17-.33,2.97-.98.8-.65,1.41-1.56,1.83-2.73.41-1.16.62-2.51.62-4.03s-.21-2.89-.62-4.01c-.42-1.12-1.02-2-1.83-2.63-.8-.63-1.78-.94-2.93-.94-.99,0-1.86.22-2.63.66-.76.44-1.4,1.02-1.92,1.75s-.92,1.51-1.18,2.37c-.27.86-.4,1.7-.4,2.53v.44c0,.54.07,1.14.22,1.8.15.67.37,1.34.68,2,.31.67.7,1.29,1.18,1.87.48.58,1.06,1.04,1.72,1.38s1.43.52,2.29.52Z"/>
    <path class="cls-1" d="M224.77,33.69c-1.9,0-3.32-.52-4.27-1.56s-1.42-2.62-1.42-4.73v-11.79h-2.97l.04-2.93h1.68c.72-.03,1.25-.19,1.58-.48s.54-.78.62-1.44l.32-2.81h2.29v4.61h5.82v3.13h-5.82v11.59c0,1.07.25,1.84.74,2.33.49.48,1.2.72,2.11.72.48,0,.99-.07,1.52-.2s1.04-.39,1.52-.76v3.61c-.7.27-1.36.46-1.99.56s-1.22.16-1.78.16Z"/>
    <path class="cls-1" d="M239.17,33.81c-1.63,0-3.07-.25-4.31-.76-1.24-.51-2.29-1.22-3.13-2.15-.84-.92-1.48-2.03-1.91-3.33s-.64-2.75-.64-4.35.21-3.08.62-4.43c.41-1.35,1.04-2.53,1.86-3.55.83-1.02,1.84-1.8,3.05-2.37s2.58-.84,4.13-.84c1.39,0,2.65.23,3.77.7,1.12.47,2.07,1.18,2.85,2.13s1.36,2.12,1.75,3.53c.39,1.4.53,3.03.42,4.87l-16.16.16v-2.49l13.84-.16-1.12,1.64c.11-1.6-.05-2.94-.46-4.01-.42-1.07-1.04-1.88-1.88-2.43-.84-.55-1.84-.82-2.99-.82-1.26,0-2.34.32-3.25.96-.91.64-1.61,1.56-2.11,2.75-.5,1.19-.74,2.63-.74,4.31,0,2.46.55,4.34,1.66,5.66,1.11,1.31,2.72,1.96,4.83,1.96.91,0,1.68-.12,2.33-.36.64-.24,1.18-.56,1.6-.96.43-.4.77-.86,1.02-1.36.25-.51.43-1.04.54-1.6l3.25.64c-.19,1.02-.51,1.93-.96,2.75-.46.82-1.05,1.51-1.79,2.08-.74.58-1.61,1.02-2.63,1.34-1.02.32-2.17.48-3.45.48Z"/>
    <path class="cls-1" d="M250.32,33.29V12.55h3.33l-.4,7.86h.6c.21-1.76.57-3.27,1.08-4.51s1.18-2.19,2.03-2.85c.84-.66,1.87-.98,3.07-.98.32,0,.66.03,1.02.08.36.05.75.16,1.18.32l-.2,3.85c-.4-.19-.8-.31-1.2-.38-.4-.07-.79-.1-1.16-.1-1.07,0-1.98.35-2.73,1.06-.75.71-1.37,1.68-1.87,2.93-.5,1.24-.86,2.68-1.1,4.31v9.14h-3.65Z"/>
  </g>
</svg>